<svg viewBox="0 0 512 194.207" fill="none" xmlns="http://www.w3.org/2000/svg"><path d="M71.845 0H5.95A5.85 5.85 0 0 0 0 5.791v183.084c0 2.931 2.436 5.332 5.473 5.332h26.289c3.031 0 5.473-2.372 5.473-5.326v-47.216h35.534c40.354 0 73.151-32.156 72.769-71.527C145.149 31.15 111.904 0 71.845 0m.924 105.425H37.235V36.24h35.534c19.597 0 35.54 15.519 35.54 34.592s-15.943 34.592-35.54 34.592m201.18 22.811c18.467-12.994 30.449-34.216 30.214-58.068C303.775 31.15 270.53 0 230.441 0H164.54a5.844 5.844 0 0 0-5.914 5.791v183.084c0 2.931 2.436 5.332 5.473 5.332h26.283c3.001 0 5.473-2.372 5.473-5.326v-47.216h17.102c28.072 0 51.176 20.963 53.731 47.651a5.43 5.43 0 0 0 5.444 4.861h26.383c3.178 0 5.679-2.607 5.473-5.703-1.548-23.852-12.853-45.185-30.037-60.263m-42.555-22.787h-35.541V36.24h35.54c19.597 0 35.534 15.519 35.534 34.592s-15.937 34.592-35.534 34.592" fill="#4A198F"/><g fill="#EF4823"><path d="m435.512 74.252-16.561 60.204-1.042 3.796a.235.235 0 0 1-.447 0l-.924-4.402-6.956-33.086a5.83 5.83 0 0 0-4.549-4.426l-38.512-7.674c-.235-.059-.235-.377 0-.465l65.748-17.131c1.995-.524 3.837 1.242 3.272 3.178"/><path d="M412.319 194.119h-1.101c-54.961-.577-99.175-44.579-98.581-98.069.294-25.912 10.946-50.17 29.973-68.29C361.643 9.61 386.807-.2 413.425.088c54.949.577 99.164 44.58 98.569 98.075-.589 53.119-45.197 95.956-99.646 95.956m-.059-157.849c-34.139 0-62.093 26.836-62.452 60.151-.388 33.521 27.33 61.11 61.793 61.487h.689c34.133 0 62.087-26.836 62.446-60.151.388-33.521-27.33-61.11-61.793-61.487h-.712"/></g></svg>